<svg width="43" height="18" viewBox="0 0 43 18" fill="none" xmlns="http://www.w3.org/2000/svg">
<g id="affirm-inc-vector-logo 1" clip-path="url(#clip0_1_5884)">
<path id="Vector" d="M14.0149 8.5095V8.98639H11.179V8.32004C11.179 7.46424 11.6736 7.22905 12.0891 7.22905C12.3793 7.22905 12.6629 7.30091 12.9267 7.43157L13.5004 6.13806C13.1509 5.93554 12.6101 5.75916 11.8583 5.75916C10.6711 5.75916 9.31256 6.42551 9.31256 8.5095V8.98639H8.23096V10.4106H9.31256V15.4539H11.1724V10.4106H13.9951V15.4409H15.8549V10.4106H17.5432V8.98639H15.8615V8.33311C15.8615 7.4773 16.3561 7.24212 16.7716 7.24212C17.0618 7.24212 17.3454 7.31398 17.6092 7.44464L18.1764 6.15113C18.1764 6.15113 17.6026 5.77222 16.5342 5.77222C15.3603 5.75916 14.0149 6.42551 14.0149 8.5095ZM4.61685 8.79694C3.54845 8.79694 2.30857 9.29344 1.64247 9.82913L2.25581 11.103C2.79661 10.6131 3.66056 10.2015 4.43879 10.2015C5.18403 10.2015 5.59293 10.4498 5.59293 10.9397C5.59293 11.2729 5.31593 11.4362 4.80152 11.5081C2.89553 11.7563 1.37866 12.292 1.37866 13.7554C1.37866 14.9182 2.21624 15.6238 3.52866 15.6238C4.40581 15.6238 5.2236 15.173 5.69185 14.4348V15.4343H7.43296V11.2337C7.41977 9.49596 6.19967 8.79694 4.61685 8.79694ZM3.96394 14.278C3.46931 14.278 3.23188 14.0428 3.23188 13.6509C3.23188 12.9257 4.06286 12.6775 5.55995 12.5207C5.55995 13.481 4.88725 14.278 3.96394 14.278ZM23.835 10.0774V8.98639H22.0938V15.4343H23.9537V12.3182C23.9537 10.8417 24.8572 10.4171 25.4903 10.4171C25.7805 10.4171 26.0575 10.502 26.2817 10.6523L26.6181 8.95373C26.3543 8.8492 26.0641 8.79694 25.7805 8.81001C24.8176 8.80348 24.2175 9.22158 23.835 10.0774ZM35.2642 8.79694C34.4135 8.81001 33.6287 9.23464 33.1604 9.92713C32.7977 9.21504 32.059 8.79694 31.1423 8.79694C30.3113 8.77081 29.5331 9.22811 29.1638 9.95979V8.98639H27.3633V15.4343H29.2231V12.1156C29.2231 10.9267 29.8497 10.3583 30.4498 10.3583C30.9774 10.3583 31.4721 10.7045 31.4721 11.5865V15.4539H33.3319V12.1222C33.3319 10.9201 33.9452 10.3648 34.5652 10.3648C35.0598 10.3648 35.5742 10.7241 35.5742 11.5799V15.4539H37.434V10.9855C37.434 9.52209 36.4514 8.79694 35.2642 8.79694ZM18.671 8.98639H20.5308V15.4343H18.671V8.98639Z" fill="black"/>
<path id="Vector_2" d="M29.513 -0.0158691C24.4809 -0.0158691 20.0028 3.44655 18.73 7.88238H20.5568C21.6252 4.57674 25.2261 1.66308 29.513 1.66308C34.7363 1.66308 39.2407 5.6024 39.2407 11.7237C39.2539 12.9845 39.0824 14.2323 38.7263 15.4344H40.4938L40.507 15.3756C40.8104 14.1866 40.9488 12.9584 40.9488 11.7237C40.9423 4.89032 35.9234 -0.0158691 29.513 -0.0158691Z" fill="#5A31F4"/>
</g>
<defs>
<clipPath id="clip0_1_5884">
<rect width="43" height="17.7931" fill="white"/>
</clipPath>
</defs>
</svg>
